<?xml version="1.0" encoding="UTF-8"?>
<svg width="60px" height="70px" viewBox="0 0 60 70" version="1.1" xmlns="http://www.w3.org/2000/svg" xmlns:xlink="http://www.w3.org/1999/xlink">
    <!-- Generator: Sketch 59 (86127) - https://sketch.com -->
    <title>cube (1)</title>
    <desc>Created with Sketch.</desc>
    <g id="Page-1" stroke="none" stroke-width="1" fill="none" fill-rule="evenodd">
        <g id="cube-(1)" fill="#F4327F" fill-rule="nonzero">
            <path d="M57.5280899,31.6561798 C56.6033708,31.6561798 55.754382,31.0651685 55.4276404,30.2026966 C55.1011236,29.3406742 55.3483146,28.325618 56.0462921,27.7182022 C56.7649438,27.092809 57.8242697,26.9862921 58.6510112,27.4620225 C59.4746067,27.9359551 59.9191011,28.9155056 59.7303371,29.8469663 C59.5202247,30.8831461 58.5896629,31.6561798 57.5280899,31.6561798 Z" id="Path"></path>
            <path d="M58.5397753,18.6889888 C58.5494382,18.6840449 58.5674157,18.6734831 58.5925843,18.6579775 C60.0514607,17.7514607 60.0510112,15.6139326 58.5925843,14.7067416 C58.5669663,14.6907865 58.548764,14.68 58.5388764,14.6750562 L30.9253933,0.303820225 C30.2750562,-0.0346067416 29.5006742,-0.0346067416 28.8505618,0.303820225 L1.2152809,14.6865169 C1.21235955,14.6878652 1.17977528,14.7067416 1.12696629,14.7375281 C0.422696629,15.1462921 -0.0107865169,15.9038202 0.000236176546,16.7179775 L0.000236176546,16.7220225 L0.000236176546,52.531236 C0.000236176546,53.3692135 0.466741573,54.1375281 1.21011236,54.5244944 L28.8505618,68.9096629 C28.8505618,68.9096629 28.8507865,68.9096629 28.8507865,68.9098876 C29.4986517,69.2359551 30.2649438,69.2375281 30.9146067,68.9150562 C30.921573,68.9114607 30.9253933,68.9096629 30.9253933,68.9096629 L58.5658427,54.5244944 C59.4883146,54.0444944 59.7755056,52.9402247 59.7755056,51.872809 L59.7755056,39.6029213 C59.7755056,38.4060674 58.8721348,37.3608989 57.6777528,37.2835955 C56.3689888,37.1988764 55.2811236,38.2355056 55.2811236,39.5258427 L55.2811236,51.1676404 L32.1348315,63.2134831 L32.1348315,32.4314607 L58.5397753,18.6889888 Z M29.8876404,4.8305618 L52.6604494,16.6824719 L29.8876404,28.534382 L7.11483146,16.6824719 L29.8876404,4.8305618 Z M4.49438202,20.3851685 L27.6404494,32.431236 L27.6404494,63.2134831 L4.49438202,51.1676404 L4.49438202,20.3851685 Z" id="Shape"></path>
        </g>
    </g>
</svg>